<svg width="32" height="33" viewBox="0 0 32 33" fill="none" xmlns="http://www.w3.org/2000/svg">
<path d="M27.7021 13.9158C27.7021 23.1498 15.8297 31.0647 15.8297 31.0647C15.8297 31.0647 3.9574 23.1498 3.9574 13.9158C3.9574 10.7671 5.20823 7.74728 7.43473 5.52078C9.66122 3.29429 12.681 2.04346 15.8297 2.04346C18.9785 2.04346 21.9983 3.29429 24.2247 5.52078C26.4512 7.74728 27.7021 10.7671 27.7021 13.9158Z" stroke="white" stroke-width="1.31915" stroke-linecap="round" stroke-linejoin="round"/>
<path d="M15.8298 17.8734C18.0154 17.8734 19.7872 16.1016 19.7872 13.9159C19.7872 11.7303 18.0154 9.9585 15.8298 9.9585C13.6441 9.9585 11.8723 11.7303 11.8723 13.9159C11.8723 16.1016 13.6441 17.8734 15.8298 17.8734Z" stroke="white" stroke-width="1.31915" stroke-linecap="round" stroke-linejoin="round"/>
</svg>
