<svg width="32" height="33" viewBox="0 0 32 33" fill="none" xmlns="http://www.w3.org/2000/svg">
<path d="M19.8532 7.40526C21.1417 7.65664 22.3258 8.28679 23.254 9.21504C24.1823 10.1433 24.8124 11.3274 25.0638 12.6159L19.8532 7.40526ZM19.8532 2.12866C22.5301 2.42605 25.0264 3.62481 26.9321 5.52812C28.8378 7.43143 30.0397 9.92616 30.3404 12.6027L19.8532 2.12866ZM29.0213 23.1295V27.087C29.0228 27.4543 28.9475 27.818 28.8003 28.1546C28.6532 28.4912 28.4373 28.7934 28.1666 29.0418C27.8959 29.2901 27.5762 29.4792 27.2282 29.5969C26.8802 29.7146 26.5114 29.7583 26.1455 29.7253C22.0863 29.2842 18.1871 27.8971 14.7613 25.6755C11.574 23.6501 8.87172 20.9479 6.84638 17.7606C4.61699 14.3192 3.2296 10.401 2.7966 6.32356C2.76363 5.95877 2.80698 5.59111 2.92389 5.244C3.0408 4.89688 3.22871 4.57791 3.47565 4.3074C3.72259 4.03688 4.02315 3.82075 4.35819 3.67275C4.69324 3.52476 5.05543 3.44816 5.4217 3.44781H9.37915C10.0193 3.44151 10.64 3.66821 11.1254 4.08566C11.6108 4.50311 11.9278 5.08283 12.0174 5.71675C12.1845 6.98322 12.4943 8.22673 12.9409 9.42356C13.1183 9.89571 13.1567 10.4088 13.0515 10.9022C12.9463 11.3955 12.7019 11.8483 12.3472 12.207L10.6719 13.8823C12.5498 17.1848 15.2843 19.9193 18.5868 21.7972L20.2621 20.1219C20.6208 19.7672 21.0736 19.5228 21.5669 19.4176C22.0602 19.3123 22.5734 19.3508 23.0455 19.5282C24.2424 19.9748 25.4859 20.2846 26.7523 20.4516C27.3931 20.542 27.9784 20.8648 28.3967 21.3585C28.815 21.8523 29.0373 22.4826 29.0213 23.1295Z" stroke="white" stroke-width="1.31915" stroke-linecap="round" stroke-linejoin="round"/>
</svg>
