<svg width="68" height="68" viewBox="-18 -10 88 88" fill="none" xmlns="http://www.w3.org/2000/svg">
<g filter="url(#filter0_dd_507_153)">
<circle cx="44" cy="36" r="24" fill="#FFFFE7"/>
<path fill-rule="evenodd" clip-rule="evenodd" d="M36.535 22C32.9258 22 30 24.9258 30 28.535V43.6049C30 47.214 32.9258 50.1398 36.535 50.1398H51.6049C55.214 50.1398 58.1398 47.214 58.1398 43.6049V28.535C58.1398 24.9258 55.214 22 51.6049 22H36.535ZM28 28.535C28 23.8212 31.8212 20 36.535 20H51.6049C56.3186 20 60.1398 23.8212 60.1398 28.535V43.6049C60.1398 48.3186 56.3186 52.1398 51.6049 52.1398H36.535C31.8212 52.1398 28 48.3186 28 43.6049V28.535ZM44.8729 31.031C43.8268 30.8758 42.7584 31.0545 41.8197 31.5416C40.8809 32.0287 40.1197 32.7994 39.6442 33.744C39.1688 34.6887 39.0033 35.7592 39.1713 36.8033C39.3393 37.8475 39.8323 38.812 40.5801 39.5598C41.3279 40.3077 42.2925 40.8006 43.3366 40.9686C44.3807 41.1367 45.4513 40.9712 46.3959 40.4957C47.3406 40.0202 48.1112 39.259 48.5983 38.3203C49.0854 37.3815 49.2641 36.3131 49.109 35.267C48.9507 34.1999 48.4535 33.212 47.6907 32.4492C46.9279 31.6864 45.94 31.1892 44.8729 31.031ZM40.8985 29.7663C42.2106 29.0855 43.704 28.8358 45.1663 29.0526C46.6578 29.2738 48.0387 29.9688 49.1049 31.035C50.1711 32.1012 50.8662 33.4821 51.0873 34.9736C51.3042 36.4359 51.0544 37.9293 50.3736 39.2414C49.6927 40.5535 48.6155 41.6176 47.2951 42.2822C45.9747 42.9468 44.4783 43.1781 43.0189 42.9432C41.5594 42.7084 40.2111 42.0193 39.1659 40.9741C38.1206 39.9288 37.4315 38.5805 37.1967 37.1211C36.9618 35.6616 37.1932 34.1652 37.8578 32.8448C38.5224 31.5244 39.5864 30.4472 40.8985 29.7663ZM52.3584 26.7812C51.8061 26.7812 51.3584 27.229 51.3584 27.7812C51.3584 28.3335 51.8061 28.7812 52.3584 28.7812H52.3757C52.928 28.7812 53.3757 28.3335 53.3757 27.7812C53.3757 27.229 52.928 26.7812 52.3757 26.7812H52.3584Z" fill="#262626"/>
</g>
<defs>
<filter id="filter0_dd_507_153" x="0" y="0" width="88" height="88" filterUnits="userSpaceOnUse" color-interpolation-filters="sRGB">
<feFlood flood-opacity="0" result="BackgroundImageFix"/>
<feColorMatrix in="SourceAlpha" type="matrix" values="0 0 0 0 0 0 0 0 0 0 0 0 0 0 0 0 0 0 127 0" result="hardAlpha"/>
<feMorphology radius="4" operator="erode" in="SourceAlpha" result="effect1_dropShadow_507_153"/>
<feOffset dy="8"/>
<feGaussianBlur stdDeviation="12"/>
<feColorMatrix type="matrix" values="0 0 0 0 0.0941176 0 0 0 0 0.152941 0 0 0 0 0.294118 0 0 0 0.08 0"/>
<feBlend mode="normal" in2="BackgroundImageFix" result="effect1_dropShadow_507_153"/>
<feColorMatrix in="SourceAlpha" type="matrix" values="0 0 0 0 0 0 0 0 0 0 0 0 0 0 0 0 0 0 127 0" result="hardAlpha"/>
<feMorphology radius="6" operator="erode" in="SourceAlpha" result="effect2_dropShadow_507_153"/>
<feOffset dy="6"/>
<feGaussianBlur stdDeviation="6"/>
<feColorMatrix type="matrix" values="0 0 0 0 0.0941176 0 0 0 0 0.152941 0 0 0 0 0.294118 0 0 0 0.12 0"/>
<feBlend mode="normal" in2="effect1_dropShadow_507_153" result="effect2_dropShadow_507_153"/>
<feBlend mode="normal" in="SourceGraphic" in2="effect2_dropShadow_507_153" result="shape"/>
</filter>
</defs>
</svg>
