<svg width="36" height="36" viewBox="0 0 48 48" fill="none" xmlns="http://www.w3.org/2000/svg">
<circle cx="24" cy="24" r="24" fill="white"/>
<path fill-rule="evenodd" clip-rule="evenodd" d="M12 13.7362C12 12.7986 12.7839 12 13.7991 12C14.8142 12 15.5981 12.7986 15.5981 13.7362C15.5981 14.6738 14.8142 15.4724 13.7991 15.4724C12.7839 15.4724 12 14.6738 12 13.7362ZM13.7991 10C11.7224 10 10 11.6515 10 13.7362C10 15.821 11.7224 17.4724 13.7991 17.4724C15.8757 17.4724 17.5981 15.821 17.5981 13.7362C17.5981 11.6515 15.8757 10 13.7991 10ZM30.593 20.2085C28.6239 20.2085 26.7399 20.9734 25.3543 22.3278C23.9695 23.6816 23.1958 25.5127 23.1958 27.4172V35.9939H26.7939V27.4172C26.7939 26.4188 27.1998 25.4661 27.9147 24.7673C28.6288 24.0692 29.5927 23.6809 30.593 23.6809C31.5933 23.6809 32.5571 24.0692 33.2713 24.7673C33.9861 25.4661 34.3921 26.4188 34.3921 27.4172V35.9939H37.9902V27.4172C37.9902 25.5127 37.2165 23.6816 35.8317 22.3278C34.4461 20.9734 32.5621 20.2085 30.593 20.2085ZM30.593 18.2085C28.1079 18.2085 25.7202 19.1733 23.9562 20.8977C22.1915 22.6228 21.1958 24.9674 21.1958 27.4172V36.9939C21.1958 37.5462 21.6435 37.9939 22.1958 37.9939H27.7939C28.3462 37.9939 28.7939 37.5462 28.7939 36.9939V27.4172C28.7939 26.9641 28.9778 26.5249 29.3128 26.1974C29.6485 25.8692 30.1086 25.6809 30.593 25.6809C31.0774 25.6809 31.5375 25.8692 31.8732 26.1974C32.2082 26.5249 32.3921 26.9641 32.3921 27.4172V36.9939C32.3921 37.5462 32.8398 37.9939 33.3921 37.9939H38.9902C39.5425 37.9939 39.9902 37.5462 39.9902 36.9939V27.4172C39.9902 24.9674 38.9945 22.6228 37.2297 20.8977C35.4658 19.1733 33.078 18.2085 30.593 18.2085ZM10 20.5767C10 20.0244 10.4477 19.5767 11 19.5767H16.5981C17.1504 19.5767 17.5981 20.0244 17.5981 20.5767V36.994C17.5981 37.5463 17.1504 37.994 16.5981 37.994H11C10.4477 37.994 10 37.5463 10 36.994V20.5767ZM12 21.5767V35.994H15.5981V21.5767H12Z" fill="black"/>
</svg>
